<?xml version="1.0" standalone="no"?>
<!DOCTYPE svg PUBLIC "-//W3C//DTD SVG 20010904//EN"
 "http://www.w3.org/TR/2001/REC-SVG-20010904/DTD/svg10.dtd">
<svg version="1.0" xmlns="http://www.w3.org/2000/svg"
 width="2004.000000pt" height="727.000000pt" viewBox="0 0 2004.000000 727.000000"
 preserveAspectRatio="xMidYMid meet">

<g transform="translate(0.000000,727.000000) scale(0.100000,-0.100000)"
fill="#000000" stroke="none">
<path d="M6810 6955 c0 -3 88 -297 196 -653 107 -356 197 -655 200 -664 5 -17
-7 -18 -165 -18 l-171 0 0 -490 0 -490 -205 0 -205 0 0 490 0 490 -190 0 -190
0 0 -1210 0 -1210 190 0 190 0 0 545 0 545 205 0 205 0 0 -545 0 -545 190 0
190 0 2 1139 3 1139 464 -1536 c404 -1334 463 -1539 454 -1563 -9 -23 -8 -27
4 -22 8 3 19 0 23 -8 7 -10 12 -8 27 9 14 16 346 120 1523 476 828 250 1518
458 1534 462 l28 7 -7 -52 -7 -51 175 0 c159 0 176 2 181 18 2 9 10 58 17 108
l11 91 240 73 c131 40 241 71 243 69 3 -3 55 -338 55 -354 0 -3 86 -5 190 -5
152 0 190 3 190 13 0 8 -16 109 -35 226 -19 116 -35 217 -35 224 0 7 50 27
118 46 64 19 123 36 130 39 9 3 12 -55 12 -272 l0 -276 190 0 190 0 0 495 0
495 148 0 c161 0 244 15 337 61 71 34 157 125 193 201 53 112 62 179 62 456 0
213 -3 260 -19 324 -41 158 -122 268 -241 326 -112 55 -168 62 -532 62 l-328
0 -2 -930 -3 -929 -150 85 -150 84 -129 788 c-70 433 -133 813 -138 845 l-10
57 -258 0 -258 0 -10 -57 c-5 -32 -47 -288 -93 -569 -75 -463 -84 -511 -99
-501 -13 7 -312 -79 -1281 -372 -695 -210 -1266 -386 -1269 -391 -3 -5 -171
541 -374 1213 -203 672 -376 1229 -385 1238 -12 12 -825 475 -1363 776 -5 2
-8 2 -8 -2z m865 -782 l491 -277 313 -1037 314 -1037 -294 -521 -294 -520 -12
37 c-23 72 -1113 3681 -1113 3687 0 3 24 -8 53 -25 28 -16 273 -155 542 -307z
m5773 -923 c73 -41 77 -58 77 -350 0 -238 -1 -257 -20 -290 -36 -61 -73 -75
-212 -79 l-123 -3 0 377 0 378 118 -5 c100 -4 126 -9 160 -28z m-1438 -559
c39 -277 70 -510 68 -517 -2 -8 -49 13 -131 60 -70 40 -130 75 -133 78 -2 3
23 201 56 439 33 239 60 438 60 443 0 47 19 -72 80 -503z"/>
<path d="M15818 5649 c-233 -32 -385 -170 -445 -405 -16 -63 -18 -135 -18
-834 0 -701 1 -771 18 -834 53 -208 182 -341 378 -390 83 -20 271 -21 357 -1
194 46 331 187 379 393 17 71 18 139 18 842 0 700 -1 771 -18 830 -55 203
-183 336 -368 384 -76 19 -219 27 -301 15z m182 -349 c42 -11 91 -60 111 -110
12 -29 14 -163 14 -785 0 -748 0 -750 -21 -790 -27 -49 -49 -70 -97 -90 -75
-31 -179 -8 -225 49 -47 61 -47 56 -47 841 0 734 0 740 21 786 42 91 136 129
244 99z"/>
<path d="M2230 4410 l0 -1210 190 0 190 0 0 495 0 495 148 0 c161 0 244 15
337 61 71 34 157 125 193 201 53 112 62 179 62 456 0 213 -3 260 -19 324 -41
160 -120 267 -241 326 -112 55 -168 62 -532 62 l-328 0 0 -1210z m657 841 c75
-43 78 -53 81 -336 3 -244 2 -251 -20 -295 -36 -70 -70 -84 -215 -89 l-123 -3
0 377 0 378 118 -5 c99 -4 126 -9 159 -27z"/>
<path d="M3560 4410 l0 -1210 190 0 190 0 0 1210 0 1210 -190 0 -190 0 0
-1210z"/>
<path d="M4230 4410 l0 -1210 500 0 500 0 0 175 0 175 -310 0 -310 0 0 1035 0
1035 -190 0 -190 0 0 -1210z"/>
<path d="M5420 4410 l0 -1210 190 0 190 0 0 1210 0 1210 -190 0 -190 0 0
-1210z"/>
<path d="M14020 5450 l0 -170 200 0 200 0 0 -1040 0 -1040 190 0 190 0 2 1038
3 1037 198 3 197 2 0 170 0 170 -590 0 -590 0 0 -170z"/>
<path d="M16760 4410 l0 -1210 190 0 190 0 2 493 3 492 170 6 c134 5 184 10
235 27 178 58 287 191 325 396 23 122 17 540 -9 631 -41 147 -132 264 -248
318 -108 50 -169 57 -527 57 l-331 0 0 -1210z m655 848 c41 -21 64 -49 81 -95
16 -47 19 -448 3 -506 -14 -53 -63 -105 -110 -117 -21 -6 -85 -9 -141 -8
l-103 3 -3 360 c-1 198 0 366 3 374 8 20 228 10 270 -11z"/>
</g>
</svg>
