<?xml version="1.0" standalone="no"?><svg xmlns="http://www.w3.org/2000/svg" viewBox="0 0 1440 320"><path fill="#0091ff" fill-opacity="1" d="M0,32L26.7,64C53.3,96,107,160,160,170.7C213.3,181,267,139,320,138.7C373.3,139,427,181,480,197.3C533.3,213,587,203,640,202.7C693.3,203,747,213,800,181.3C853.3,149,907,75,960,58.7C1013.3,43,1067,85,1120,106.7C1173.3,128,1227,128,1280,144C1333.3,160,1387,192,1413,208L1440,224L1440,0L1413.3,0C1386.7,0,1333,0,1280,0C1226.7,0,1173,0,1120,0C1066.7,0,1013,0,960,0C906.7,0,853,0,800,0C746.7,0,693,0,640,0C586.7,0,533,0,480,0C426.7,0,373,0,320,0C266.7,0,213,0,160,0C106.7,0,53,0,27,0L0,0Z"></path></svg>